<?xml version="1.0" encoding="UTF-8"?>
<!DOCTYPE svg PUBLIC "-//W3C//DTD SVG 1.1//EN" "http://www.w3.org/Graphics/SVG/1.1/DTD/svg11.dtd">
<svg xmlns="http://www.w3.org/2000/svg" version="1.1" width="500px" height="500px" style="shape-rendering:geometricPrecision; text-rendering:geometricPrecision; image-rendering:optimizeQuality; fill-rule:evenodd; clip-rule:evenodd" xmlns:xlink="http://www.w3.org/1999/xlink">
<g><path style="opacity:1" fill="#202020" d="M -0.5,-0.5 C 166.167,-0.5 332.833,-0.5 499.5,-0.5C 499.5,166.167 499.5,332.833 499.5,499.5C 332.833,499.5 166.167,499.5 -0.5,499.5C -0.5,332.833 -0.5,166.167 -0.5,-0.5 Z"/></g>
<g><path style="opacity:1" fill="#fcfcfc" d="M 176.5,204.5 C 176.5,222.167 176.5,239.833 176.5,257.5C 184.167,257.5 191.833,257.5 199.5,257.5C 199.5,239.833 199.5,222.167 199.5,204.5C 209.172,204.334 218.839,204.5 228.5,205C 240.473,210.126 243.64,218.626 238,230.5C 236.457,232.378 234.624,233.878 232.5,235C 238.113,236.282 242.28,239.449 245,244.5C 245.5,231.171 245.667,217.837 245.5,204.5C 258.167,204.5 270.833,204.5 283.5,204.5C 283.5,208.833 283.5,213.167 283.5,217.5C 275.833,217.5 268.167,217.5 260.5,217.5C 260.5,221.833 260.5,226.167 260.5,230.5C 267.313,231.491 274.313,231.825 281.5,231.5C 281.5,235.5 281.5,239.5 281.5,243.5C 274.313,243.175 267.313,243.509 260.5,244.5C 260.5,248.833 260.5,253.167 260.5,257.5C 268.42,257.185 276.253,257.518 284,258.5C 285.271,255.567 286.938,252.901 289,250.5C 292.59,253.046 296.423,255.213 300.5,257C 304.594,257.767 308.594,257.434 312.5,256C 314.282,253.757 314.782,251.257 314,248.5C 307.98,244.819 301.813,241.319 295.5,238C 288.053,232.597 285.553,225.43 288,216.5C 294.514,204.833 304.347,200.667 317.5,204C 320.95,205.03 324.283,206.363 327.5,208C 328.022,208.561 328.355,209.228 328.5,210C 326.803,213.894 324.97,217.727 323,221.5C 317.341,217.831 311.174,216.664 304.5,218C 302.32,220.418 301.987,223.084 303.5,226C 308.554,229.194 313.888,231.861 319.5,234C 334.355,244.038 335.355,255.371 322.5,268C 309.411,273.329 296.744,272.495 284.5,265.5C 283.548,267.045 283.215,268.712 283.5,270.5C 270.833,270.5 258.167,270.5 245.5,270.5C 245.666,266.486 245.499,262.486 245,258.5C 242.227,264.94 237.394,268.774 230.5,270C 207.502,270.5 184.502,270.667 161.5,270.5C 161.666,263.159 161.5,255.826 161,248.5C 150.909,269.868 134.743,276.368 112.5,268C 94.0334,253.923 90.5334,236.757 102,216.5C 115.426,202.011 130.926,199.511 148.5,209C 154.519,213.548 158.685,219.381 161,226.5C 161.5,219.174 161.666,211.841 161.5,204.5C 166.5,204.5 171.5,204.5 176.5,204.5 Z"/></g>
<g><path style="opacity:1" fill="#565656" d="M 176.5,204.5 C 177.497,221.659 177.83,238.992 177.5,256.5C 184.5,256.5 191.5,256.5 198.5,256.5C 198.17,238.992 198.503,221.659 199.5,204.5C 199.5,222.167 199.5,239.833 199.5,257.5C 191.833,257.5 184.167,257.5 176.5,257.5C 176.5,239.833 176.5,222.167 176.5,204.5 Z"/></g>
<g><path style="opacity:1" fill="#f9cd11" d="M 344.5,204.5 C 364.5,204.5 384.5,204.5 404.5,204.5C 404.5,208.833 404.5,213.167 404.5,217.5C 399.167,217.5 393.833,217.5 388.5,217.5C 388.5,235.167 388.5,252.833 388.5,270.5C 383.5,270.5 378.5,270.5 373.5,270.5C 373.5,252.833 373.5,235.167 373.5,217.5C 369.167,217.5 364.833,217.5 360.5,217.5C 360.5,235.167 360.5,252.833 360.5,270.5C 355.167,270.5 349.833,270.5 344.5,270.5C 344.5,248.5 344.5,226.5 344.5,204.5 Z"/></g>
<g><path style="opacity:1" fill="#222222" d="M 214.5,216.5 C 224.301,215.442 227.301,219.275 223.5,228C 220.649,229.289 217.649,229.789 214.5,229.5C 214.5,225.167 214.5,220.833 214.5,216.5 Z"/></g>
<g><path style="opacity:1" fill="#222222" d="M 124.5,217.5 C 134.343,216.501 141.176,220.501 145,229.5C 146.674,238.027 145.174,245.86 140.5,253C 131.925,258.104 123.758,257.604 116,251.5C 111.019,241.574 111.353,231.908 117,222.5C 119.426,220.548 121.926,218.881 124.5,217.5 Z"/></g>
<g><path style="opacity:1" fill="#c2c2c2" d="M 260.5,230.5 C 267.833,230.5 275.167,230.5 282.5,230.5C 282.5,235.167 282.5,239.833 282.5,244.5C 275.167,244.5 267.833,244.5 260.5,244.5C 267.313,243.509 274.313,243.175 281.5,243.5C 281.5,239.5 281.5,235.5 281.5,231.5C 274.313,231.825 267.313,231.491 260.5,230.5 Z"/></g>
<g><path style="opacity:1" fill="#232323" d="M 214.5,243.5 C 219.734,242.835 224.568,243.835 229,246.5C 231.223,250.388 230.723,253.888 227.5,257C 223.27,258.29 218.936,258.79 214.5,258.5C 214.5,253.5 214.5,248.5 214.5,243.5 Z"/></g>
</svg>
